<svg width="51" height="53" viewBox="0 0 51 53" fill="none" xmlns="http://www.w3.org/2000/svg">
<rect width="50.5225" height="52.9854" rx="4.54702" fill="#B9DCFC"/>
<path fill-rule="evenodd" clip-rule="evenodd" d="M12.1255 19.5143C12.1255 17.5547 12.904 15.6753 14.2896 14.2896C15.6753 12.9039 17.5547 12.1254 19.5144 12.1254H35.9342C36.5874 12.1254 37.2139 12.3849 37.6758 12.8468C38.1377 13.3087 38.3972 13.9352 38.3972 14.5884V39.2181C38.3972 39.6536 38.2242 40.0712 37.9162 40.3792C37.6083 40.6871 37.1907 40.8601 36.7552 40.8601H17.8724C16.4902 40.8604 15.1542 40.3626 14.1093 39.4579C13.0643 38.5532 12.3804 37.3022 12.183 35.9341H12.1255V19.5143ZM35.9342 31.8292H17.8724C17.0015 31.8292 16.1662 32.1752 15.5503 32.791C14.9344 33.4069 14.5885 34.2422 14.5885 35.1132C14.5885 35.9841 14.9344 36.8194 15.5503 37.4353C16.1662 38.0511 17.0015 38.3971 17.8724 38.3971H35.9342V31.8292ZM19.1039 19.5143C19.1039 19.1877 19.2337 18.8745 19.4646 18.6435C19.6955 18.4126 20.0088 18.2829 20.3354 18.2829H31.8293C32.1559 18.2829 32.4691 18.4126 32.7 18.6435C32.931 18.8745 33.0607 19.1877 33.0607 19.5143C33.0607 19.8409 32.931 20.1542 32.7 20.3851C32.4691 20.6161 32.1559 20.7458 31.8293 20.7458H20.3354C20.0088 20.7458 19.6955 20.6161 19.4646 20.3851C19.2337 20.1542 19.1039 19.8409 19.1039 19.5143ZM20.3354 23.2088C20.0088 23.2088 19.6955 23.3385 19.4646 23.5695C19.2337 23.8004 19.1039 24.1137 19.1039 24.4403C19.1039 24.7669 19.2337 25.0801 19.4646 25.3111C19.6955 25.542 20.0088 25.6718 20.3354 25.6718H28.5453C28.8719 25.6718 29.1851 25.542 29.4161 25.3111C29.647 25.0801 29.7768 24.7669 29.7768 24.4403C29.7768 24.1137 29.647 23.8004 29.4161 23.5695C29.1851 23.3385 28.8719 23.2088 28.5453 23.2088H20.3354Z" fill="#0067D0"/>
</svg>
