<svg width="50" height="52" viewBox="0 0 50 52" fill="none" xmlns="http://www.w3.org/2000/svg">
<rect width="50" height="52" rx="4" fill="#B9DCFC"/>
<path d="M12.5902 15.8631L18.524 21.0832L23.8107 14.5752C23.9587 14.3933 24.1459 14.2471 24.3583 14.1475C24.5707 14.0479 24.8028 13.9975 25.0373 14.0001C25.2719 14.0026 25.5029 14.0581 25.7131 14.1622C25.9232 14.2664 26.1072 14.4166 26.2512 14.6017L31.2962 21.0816L37.4218 15.7867C37.6623 15.5792 37.9605 15.4501 38.2765 15.4167C38.5925 15.3833 38.9111 15.4472 39.1897 15.5998C39.4684 15.7524 39.6938 15.9864 39.8357 16.2706C39.9777 16.5548 40.0294 16.8756 39.984 17.1899L37.6448 33.3225H12.3922L10.0171 17.2632C9.9699 16.9471 10.021 16.6241 10.1636 16.338C10.3061 16.0519 10.5332 15.8165 10.814 15.6637C11.0948 15.5109 11.4158 15.4481 11.7335 15.4837C12.0512 15.5194 12.3503 15.6518 12.5902 15.8631ZM12.5138 34.8817H37.4654V36.4408C37.4654 36.8544 37.3011 37.2509 37.0087 37.5433C36.7162 37.8357 36.3196 38 35.906 38H14.0733C13.6597 38 13.263 37.8357 12.9706 37.5433C12.6781 37.2509 12.5138 36.8544 12.5138 36.4408V34.8817Z" fill="#0067D0"/>
</svg>
