<svg width="216" height="49" viewBox="0 0 216 49" fill="none" xmlns="http://www.w3.org/2000/svg">
<path d="M89.0129 21V10.4957L84.9104 18.3176H83.1747L79.0722 10.4957V21H75.9615V4.99566H79.2976L84.0313 14.1024L88.8101 4.99566H92.1236V21H89.0129ZM100.429 21.2254C99.4671 21.2254 98.603 21.0676 97.8366 20.752C97.0702 20.4214 96.4165 19.9706 95.8755 19.3996C95.3496 18.8285 94.9438 18.1748 94.6583 17.4385C94.3728 16.7021 94.23 15.9282 94.23 15.1167C94.23 14.2902 94.3728 13.5088 94.6583 12.7724C94.9438 12.0361 95.3496 11.3824 95.8755 10.8113C96.4165 10.2403 97.0702 9.79696 97.8366 9.48138C98.603 9.15078 99.4671 8.98547 100.429 8.98547C101.391 8.98547 102.247 9.15078 102.999 9.48138C103.765 9.79696 104.419 10.2403 104.96 10.8113C105.501 11.3824 105.906 12.0361 106.177 12.7724C106.462 13.5088 106.605 14.2902 106.605 15.1167C106.605 15.9282 106.462 16.7021 106.177 17.4385C105.906 18.1748 105.501 18.8285 104.96 19.3996C104.434 19.9706 103.788 20.4214 103.021 20.752C102.255 21.0676 101.391 21.2254 100.429 21.2254ZM97.3407 15.1167C97.3407 15.808 97.476 16.4241 97.7465 16.9651C98.017 17.4911 98.3851 17.9043 98.851 18.2049C99.3168 18.5054 99.8428 18.6557 100.429 18.6557C101 18.6557 101.518 18.5054 101.984 18.2049C102.45 17.8893 102.818 17.4685 103.089 16.9426C103.374 16.4016 103.517 15.7854 103.517 15.0942C103.517 14.4179 103.374 13.8093 103.089 13.2683C102.818 12.7273 102.45 12.3066 101.984 12.006C101.518 11.7055 101 11.5552 100.429 11.5552C99.8428 11.5552 99.3168 11.713 98.851 12.0286C98.3851 12.3291 98.017 12.7499 97.7465 13.2909C97.476 13.8168 97.3407 14.4254 97.3407 15.1167ZM116.714 21L113.265 15.9057L111.665 17.4836V21H108.644V4.54484H111.665V14.5081L116.421 9.21089H119.622L115.226 14.2151L119.937 21H116.714ZM121.191 4.54484H124.211V17.2131C124.211 17.754 124.302 18.1222 124.482 18.3176C124.662 18.4979 124.91 18.5881 125.226 18.5881C125.466 18.5881 125.714 18.558 125.97 18.4979C126.225 18.4378 126.45 18.3627 126.646 18.2725L127.052 20.5717C126.646 20.7671 126.172 20.9173 125.631 21.0225C125.09 21.1277 124.602 21.1803 124.166 21.1803C123.22 21.1803 122.483 20.9324 121.957 20.4365C121.446 19.9255 121.191 19.2042 121.191 18.2725V4.54484ZM133.845 21.2254C132.898 21.2254 132.042 21.0676 131.275 20.752C130.509 20.4214 129.855 19.9781 129.314 19.4221C128.773 18.8511 128.353 18.2049 128.052 17.4836C127.767 16.7472 127.624 15.9733 127.624 15.1618C127.624 14.0347 127.872 13.0053 128.368 12.0736C128.879 11.1419 129.6 10.3981 130.532 9.84205C131.478 9.271 132.59 8.98547 133.868 8.98547C135.16 8.98547 136.265 9.271 137.181 9.84205C138.098 10.3981 138.797 11.1419 139.278 12.0736C139.774 12.9903 140.021 13.9821 140.021 15.0491C140.021 15.2294 140.014 15.4173 139.999 15.6126C139.984 15.793 139.969 15.9432 139.954 16.0635H130.825C130.885 16.6646 131.058 17.1905 131.343 17.6413C131.644 18.0922 132.019 18.4378 132.47 18.6782C132.936 18.9037 133.432 19.0164 133.958 19.0164C134.559 19.0164 135.123 18.8736 135.648 18.5881C136.189 18.2875 136.558 17.8968 136.753 17.4159L139.345 18.1373C139.06 18.7384 138.646 19.2718 138.105 19.7377C137.58 20.2035 136.956 20.5717 136.235 20.8422C135.513 21.0977 134.717 21.2254 133.845 21.2254ZM130.757 14.1474H136.933C136.873 13.5463 136.7 13.0279 136.415 12.5921C136.144 12.1413 135.784 11.7956 135.333 11.5552C134.882 11.2997 134.379 11.172 133.823 11.172C133.282 11.172 132.786 11.2997 132.335 11.5552C131.899 11.7956 131.538 12.1413 131.253 12.5921C130.982 13.0279 130.817 13.5463 130.757 14.1474ZM148.83 20.3914C148.574 20.4966 148.266 20.6168 147.905 20.752C147.545 20.8873 147.154 20.9925 146.733 21.0676C146.327 21.1578 145.914 21.2029 145.493 21.2029C144.937 21.2029 144.426 21.1052 143.961 20.9098C143.495 20.7145 143.119 20.4064 142.834 19.9856C142.563 19.5498 142.428 18.9863 142.428 18.295V11.5101H140.872V9.18835H142.428V5.35632H145.448V9.18835H147.928V11.5101H145.448V17.2807C145.463 17.6864 145.576 17.9795 145.786 18.1598C145.997 18.3401 146.26 18.4303 146.575 18.4303C146.891 18.4303 147.199 18.3777 147.5 18.2725C147.8 18.1673 148.041 18.0771 148.221 18.002L148.83 20.3914Z" fill="#0067D0"/>
<path d="M82.7915 42.9471C81.6194 42.9471 80.5524 42.7217 79.5907 42.2709C78.6439 41.8201 77.8249 41.2114 77.1337 40.445C76.4574 39.6636 75.9315 38.792 75.5558 37.8302C75.1801 36.8534 74.9922 35.8541 74.9922 34.8322C74.9922 33.7653 75.1876 32.7509 75.5783 31.7892C75.9841 30.8124 76.5326 29.9483 77.2238 29.1969C77.9301 28.4305 78.7566 27.8294 79.7034 27.3936C80.6651 26.9428 81.7171 26.7174 82.8592 26.7174C84.0163 26.7174 85.0682 26.9503 86.0149 27.4161C86.9767 27.882 87.7957 28.5056 88.4719 29.2871C89.1482 30.0685 89.6742 30.9401 90.0498 31.9019C90.4255 32.8636 90.6134 33.8555 90.6134 34.8773C90.6134 35.9293 90.418 36.9436 90.0273 37.9204C89.6366 38.8822 89.0881 39.7463 88.3818 40.5127C87.6905 41.264 86.864 41.8576 85.9022 42.2934C84.9555 42.7292 83.9186 42.9471 82.7915 42.9471ZM78.148 34.8322C78.148 35.5235 78.2532 36.1922 78.4636 36.8384C78.674 37.4846 78.9745 38.0632 79.3653 38.5741C79.771 39.07 80.2594 39.4682 80.8304 39.7688C81.4165 40.0543 82.0777 40.1971 82.8141 40.1971C83.5655 40.1971 84.2342 40.0468 84.8203 39.7463C85.4063 39.4307 85.8947 39.0174 86.2854 38.5065C86.6762 37.9805 86.9692 37.402 87.1646 36.7708C87.3749 36.1246 87.4801 35.4784 87.4801 34.8322C87.4801 34.141 87.3674 33.4798 87.142 32.8486C86.9316 32.2024 86.6236 31.6314 86.2178 31.1355C85.8271 30.6245 85.3387 30.2263 84.7526 29.9408C84.1816 29.6402 83.5354 29.4899 82.8141 29.4899C82.0477 29.4899 81.3714 29.6477 80.7854 29.9633C80.2143 30.2639 79.7334 30.6696 79.3427 31.1805C78.952 31.6915 78.6514 32.2625 78.4411 32.8937C78.2457 33.5248 78.148 34.171 78.148 34.8322ZM99.6745 43.0598C98.7578 43.0598 97.9463 42.857 97.24 42.4512C96.5487 42.0304 96.0077 41.4669 95.617 40.7606V47.6357H92.5965V31.0228H95.2338V33.0515C95.6846 32.3602 96.2557 31.8192 96.947 31.4285C97.6382 31.0228 98.4272 30.8199 99.3138 30.8199C100.11 30.8199 100.839 30.9777 101.5 31.2933C102.177 31.6088 102.763 32.0521 103.259 32.6232C103.754 33.1792 104.138 33.8254 104.408 34.5617C104.694 35.2831 104.836 36.0645 104.836 36.906C104.836 38.0481 104.611 39.085 104.16 40.0167C103.724 40.9485 103.116 41.6923 102.334 42.2483C101.568 42.7893 100.681 43.0598 99.6745 43.0598ZM98.6601 40.4901C99.126 40.4901 99.5467 40.3924 99.9224 40.1971C100.298 40.0017 100.621 39.7387 100.892 39.4081C101.177 39.0625 101.388 38.6793 101.523 38.2585C101.673 37.8227 101.748 37.3719 101.748 36.906C101.748 36.4101 101.666 35.9518 101.5 35.531C101.35 35.1103 101.125 34.7421 100.824 34.4265C100.524 34.0959 100.17 33.8404 99.7646 33.6601C99.3739 33.4798 98.9456 33.3896 98.4798 33.3896C98.1942 33.3896 97.9012 33.4422 97.6007 33.5474C97.3151 33.6376 97.0371 33.7728 96.7666 33.9531C96.4961 34.1335 96.2557 34.3438 96.0453 34.5843C95.8499 34.8247 95.7072 35.0877 95.617 35.3732V38.1458C95.7973 38.5816 96.0378 38.9798 96.3383 39.3405C96.6539 39.7012 97.0146 39.9867 97.4203 40.1971C97.8261 40.3924 98.2393 40.4901 98.6601 40.4901ZM112.36 43.0598C111.414 43.0598 110.557 42.902 109.791 42.5865C109.024 42.2559 108.371 41.8125 107.83 41.2565C107.289 40.6855 106.868 40.0393 106.567 39.318C106.282 38.5816 106.139 37.8077 106.139 36.9962C106.139 35.8691 106.387 34.8398 106.883 33.908C107.394 32.9763 108.115 32.2325 109.047 31.6765C109.994 31.1054 111.106 30.8199 112.383 30.8199C113.675 30.8199 114.78 31.1054 115.697 31.6765C116.613 32.2325 117.312 32.9763 117.793 33.908C118.289 34.8247 118.537 35.8165 118.537 36.8835C118.537 37.0638 118.529 37.2517 118.514 37.447C118.499 37.6274 118.484 37.7776 118.469 37.8979H109.34C109.4 38.499 109.573 39.0249 109.858 39.4758C110.159 39.9266 110.535 40.2722 110.985 40.5127C111.451 40.7381 111.947 40.8508 112.473 40.8508C113.074 40.8508 113.638 40.708 114.164 40.4225C114.705 40.1219 115.073 39.7312 115.268 39.2503L117.861 39.9717C117.575 40.5728 117.162 41.1062 116.621 41.5721C116.095 42.038 115.471 42.4061 114.75 42.6766C114.029 42.9321 113.232 43.0598 112.36 43.0598ZM109.272 35.9818H115.449C115.389 35.3807 115.216 34.8623 114.93 34.4265C114.66 33.9757 114.299 33.63 113.848 33.3896C113.397 33.1341 112.894 33.0064 112.338 33.0064C111.797 33.0064 111.301 33.1341 110.85 33.3896C110.414 33.63 110.054 33.9757 109.768 34.4265C109.498 34.8623 109.332 35.3807 109.272 35.9818ZM131.355 42.8344H128.334V36.2073C128.334 35.2605 128.169 34.5693 127.838 34.1335C127.507 33.6977 127.049 33.4798 126.463 33.4798C126.057 33.4798 125.644 33.585 125.223 33.7953C124.818 34.0057 124.449 34.2988 124.119 34.6745C123.788 35.0351 123.548 35.4559 123.397 35.9368V42.8344H120.377V31.0228H123.104V33.2093C123.405 32.6983 123.788 32.27 124.254 31.9244C124.72 31.5638 125.253 31.2933 125.854 31.1129C126.471 30.9176 127.117 30.8199 127.793 30.8199C128.529 30.8199 129.13 30.9551 129.596 31.2256C130.077 31.4811 130.438 31.8342 130.678 32.2851C130.934 32.7209 131.107 33.2168 131.197 33.7728C131.302 34.3288 131.355 34.8924 131.355 35.4634V42.8344ZM138.72 34.7195C138.72 33.7427 138.893 32.7885 139.238 31.8568C139.599 30.9101 140.117 30.0535 140.794 29.2871C141.47 28.5056 142.296 27.8895 143.273 27.4387C144.25 26.9728 145.362 26.7399 146.609 26.7399C148.082 26.7399 149.352 27.063 150.419 27.7092C151.501 28.3554 152.305 29.1969 152.831 30.2338L150.441 31.8793C150.171 31.2782 149.818 30.8049 149.382 30.4592C148.946 30.0986 148.48 29.8506 147.984 29.7154C147.488 29.5651 147 29.4899 146.519 29.4899C145.738 29.4899 145.054 29.6477 144.468 29.9633C143.897 30.2789 143.416 30.6922 143.025 31.2031C142.635 31.714 142.342 32.2851 142.146 32.9162C141.966 33.5474 141.876 34.1785 141.876 34.8097C141.876 35.516 141.988 36.1997 142.214 36.861C142.439 37.5071 142.755 38.0857 143.161 38.5966C143.581 39.0926 144.077 39.4908 144.648 39.7913C145.234 40.0769 145.873 40.2196 146.564 40.2196C147.06 40.2196 147.564 40.137 148.075 39.9717C148.585 39.8064 149.059 39.5434 149.495 39.1827C149.93 38.8221 150.269 38.3562 150.509 37.7852L153.056 39.2503C152.741 40.0468 152.222 40.723 151.501 41.2791C150.795 41.8351 149.998 42.2559 149.111 42.5414C148.225 42.8269 147.346 42.9697 146.474 42.9697C145.332 42.9697 144.288 42.7367 143.341 42.2709C142.394 41.79 141.575 41.1588 140.884 40.3774C140.208 39.5809 139.674 38.6943 139.283 37.7175C138.908 36.7257 138.72 35.7264 138.72 34.7195ZM160.26 43.0598C159.298 43.0598 158.434 42.902 157.668 42.5865C156.902 42.2559 156.248 41.805 155.707 41.234C155.181 40.6629 154.775 40.0092 154.49 39.2729C154.204 38.5365 154.061 37.7626 154.061 36.9511C154.061 36.1246 154.204 35.3432 154.49 34.6068C154.775 33.8705 155.181 33.2168 155.707 32.6457C156.248 32.0747 156.902 31.6314 157.668 31.3158C158.434 30.9852 159.298 30.8199 160.26 30.8199C161.222 30.8199 162.079 30.9852 162.83 31.3158C163.596 31.6314 164.25 32.0747 164.791 32.6457C165.332 33.2168 165.738 33.8705 166.008 34.6068C166.294 35.3432 166.437 36.1246 166.437 36.9511C166.437 37.7626 166.294 38.5365 166.008 39.2729C165.738 40.0092 165.332 40.6629 164.791 41.234C164.265 41.805 163.619 42.2559 162.852 42.5865C162.086 42.902 161.222 43.0598 160.26 43.0598ZM157.172 36.9511C157.172 37.6424 157.307 38.2585 157.578 38.7995C157.848 39.3255 158.216 39.7387 158.682 40.0393C159.148 40.3398 159.674 40.4901 160.26 40.4901C160.831 40.4901 161.35 40.3398 161.816 40.0393C162.281 39.7237 162.65 39.3029 162.92 38.777C163.206 38.236 163.348 37.6199 163.348 36.9286C163.348 36.2523 163.206 35.6437 162.92 35.1027C162.65 34.5617 162.281 34.141 161.816 33.8404C161.35 33.5399 160.831 33.3896 160.26 33.3896C159.674 33.3896 159.148 33.5474 158.682 33.863C158.216 34.1635 157.848 34.5843 157.578 35.1253C157.307 35.6512 157.172 36.2599 157.172 36.9511ZM168.363 38.4163V31.0228H171.383V37.7626C171.383 38.6643 171.548 39.348 171.879 39.8139C172.21 40.2647 172.698 40.4901 173.344 40.4901C173.735 40.4901 174.118 40.415 174.494 40.2647C174.885 40.0994 175.238 39.859 175.553 39.5434C175.884 39.2278 176.162 38.8296 176.387 38.3487V31.0228H179.408V39.4532C179.408 39.7688 179.46 39.9942 179.566 40.1295C179.686 40.2647 179.874 40.3474 180.129 40.3774V42.8344C179.829 42.8795 179.573 42.9095 179.363 42.9246C179.167 42.9546 178.987 42.9697 178.822 42.9697C178.281 42.9697 177.837 42.8494 177.492 42.609C177.161 42.3535 176.966 42.0079 176.906 41.5721L176.838 40.6254C176.312 41.4218 175.636 42.0304 174.809 42.4512C173.983 42.857 173.074 43.0598 172.082 43.0598C170.865 43.0598 169.941 42.6691 169.309 41.8877C168.678 41.0912 168.363 39.9341 168.363 38.4163ZM189.442 33.6376C188.526 33.6376 187.707 33.8179 186.985 34.1785C186.264 34.5242 185.746 35.0276 185.43 35.6888V42.8344H182.41V31.0228H185.182V33.5474C185.603 32.7359 186.136 32.0972 186.783 31.6314C187.429 31.1655 188.113 30.9101 188.834 30.865C188.999 30.865 189.127 30.865 189.217 30.865C189.307 30.865 189.382 30.8725 189.442 30.8875V33.6376ZM195.477 43.0598C194.47 43.0598 193.509 42.8945 192.592 42.5639C191.675 42.2333 190.886 41.7449 190.225 41.0987L191.307 39.1376C192.013 39.7087 192.705 40.1295 193.381 40.3999C194.072 40.6704 194.733 40.8057 195.364 40.8057C195.951 40.8057 196.416 40.7005 196.762 40.4901C197.123 40.2797 197.303 39.9641 197.303 39.5434C197.303 39.2579 197.205 39.04 197.01 38.8897C196.815 38.7244 196.529 38.5816 196.153 38.4614C195.793 38.3412 195.349 38.2059 194.823 38.0557C193.952 37.7701 193.223 37.4921 192.637 37.2216C192.051 36.9511 191.608 36.613 191.307 36.2073C191.022 35.7865 190.879 35.253 190.879 34.6068C190.879 33.8254 191.074 33.1567 191.465 32.6007C191.871 32.0296 192.427 31.5863 193.133 31.2707C193.854 30.9551 194.696 30.7973 195.658 30.7973C196.499 30.7973 197.296 30.9326 198.047 31.2031C198.798 31.4586 199.482 31.8793 200.098 32.4654L198.881 34.3814C198.28 33.9156 197.709 33.5774 197.168 33.3671C196.627 33.1416 196.078 33.0289 195.522 33.0289C195.207 33.0289 194.906 33.0665 194.621 33.1416C194.35 33.2168 194.125 33.3445 193.944 33.5248C193.779 33.6901 193.696 33.9306 193.696 34.2462C193.696 34.5317 193.772 34.7571 193.922 34.9224C194.087 35.0727 194.328 35.2079 194.643 35.3282C194.974 35.4484 195.372 35.5836 195.838 35.7339C196.785 36.0044 197.581 36.2824 198.227 36.5679C198.888 36.8534 199.384 37.2066 199.715 37.6274C200.046 38.0331 200.211 38.5966 200.211 39.318C200.211 40.4901 199.783 41.4068 198.926 42.068C198.069 42.7292 196.92 43.0598 195.477 43.0598ZM207.743 43.0598C206.796 43.0598 205.94 42.902 205.173 42.5865C204.407 42.2559 203.753 41.8125 203.212 41.2565C202.671 40.6855 202.25 40.0393 201.95 39.318C201.664 38.5816 201.521 37.8077 201.521 36.9962C201.521 35.8691 201.769 34.8398 202.265 33.908C202.776 32.9763 203.498 32.2325 204.429 31.6765C205.376 31.1054 206.488 30.8199 207.765 30.8199C209.058 30.8199 210.162 31.1054 211.079 31.6765C211.996 32.2325 212.694 32.9763 213.175 33.908C213.671 34.8247 213.919 35.8165 213.919 36.8835C213.919 37.0638 213.912 37.2517 213.897 37.447C213.882 37.6274 213.867 37.7776 213.852 37.8979H204.722C204.782 38.499 204.955 39.0249 205.241 39.4758C205.541 39.9266 205.917 40.2722 206.368 40.5127C206.834 40.7381 207.33 40.8508 207.856 40.8508C208.457 40.8508 209.02 40.708 209.546 40.4225C210.087 40.1219 210.455 39.7312 210.651 39.2503L213.243 39.9717C212.957 40.5728 212.544 41.1062 212.003 41.5721C211.477 42.038 210.854 42.4061 210.132 42.6766C209.411 42.9321 208.614 43.0598 207.743 43.0598ZM204.655 35.9818H210.831C210.771 35.3807 210.598 34.8623 210.313 34.4265C210.042 33.9757 209.681 33.63 209.231 33.3896C208.78 33.1341 208.276 33.0064 207.72 33.0064C207.179 33.0064 206.683 33.1341 206.233 33.3896C205.797 33.63 205.436 33.9757 205.151 34.4265C204.88 34.8623 204.715 35.3807 204.655 35.9818Z" fill="#0067D0"/>
<path d="M35.0019 3.1231C34.7254 2.99956 34.4093 2.99962 34.1328 3.12327L3.29284 16.9135C2.43446 17.2973 2.45823 18.5239 3.33084 18.8742L13.622 23.0053L34.1709 31.2541C34.4253 31.3563 34.7094 31.3563 34.9639 31.2543L55.5468 23.0053L65.8367 18.8747C66.7095 18.5244 66.733 17.2974 65.8743 16.9138L35.0019 3.1231Z" fill="#0067D0"/>
<path d="M13.622 23.0053L3.33084 18.8742C2.45823 18.5239 2.43446 17.2973 3.29284 16.9135L34.1328 3.12327C34.4093 2.99962 34.7254 2.99956 35.0019 3.1231L65.8743 16.9138C66.733 17.2974 66.7095 18.5244 65.8367 18.8747L55.5468 23.0053M13.622 23.0053L34.1709 31.2541C34.4253 31.3563 34.7094 31.3563 34.9639 31.2543L55.5468 23.0053M13.622 23.0053V37.7443C13.622 38.1812 13.8888 38.5739 14.2951 38.7346L34.1757 46.6027C34.4273 46.7023 34.7074 46.7023 34.959 46.6029L54.8731 38.7344C55.2797 38.5738 55.5468 38.181 55.5468 37.7439V23.0053" stroke="#0067D0" stroke-width="4.42015"/>
</svg>
