<svg width="50" height="52" viewBox="0 0 50 52" fill="none" xmlns="http://www.w3.org/2000/svg">
<rect width="50" height="52" rx="4" fill="#B9DCFC"/>
<path d="M13.4062 40.8708C12.8229 41.0861 12.2763 41.0323 11.7665 40.7094C11.2567 40.3864 11.0012 39.9424 11 39.3773V32.1922C11 31.6539 11.1388 31.1426 11.4165 30.6582C11.6942 30.1739 12.0803 29.7836 12.575 29.4876L14.5 28.317C14.7042 30.4968 15.018 32.3805 15.4415 33.9682C15.865 35.556 16.5574 37.359 17.5187 39.3773L13.4062 40.8708ZM21.15 38.5296C20.7417 38.5296 20.3917 38.4085 20.1 38.1663C19.8083 37.9241 19.5896 37.6281 19.4437 37.2783C18.6562 35.4214 18.0729 33.7061 17.6937 32.1324C17.3146 30.5587 17.125 28.7487 17.125 26.7024C17.125 23.6884 17.7083 20.8159 18.875 18.0851C20.0417 15.3542 21.6312 13.1405 23.6437 11.4441C23.8187 11.2826 24.0305 11.1679 24.279 11.1001C24.5275 11.0323 24.7678 10.9989 25 11C25.2322 11.0011 25.4731 11.035 25.7227 11.1017C25.9724 11.1685 26.1836 11.2826 26.3562 11.4441C28.3687 13.1394 29.9583 15.3531 31.125 18.0851C32.2917 20.817 32.875 23.6895 32.875 26.7024C32.875 28.7745 32.6854 30.591 32.3062 32.1518C31.9271 33.7126 31.3437 35.4214 30.5562 37.2783C30.4104 37.6281 30.1917 37.9241 29.9 38.1663C29.6083 38.4085 29.2583 38.5296 28.85 38.5296H21.15ZM25 27.2271C25.9625 27.2271 26.7867 26.9112 27.4727 26.2793C28.1587 25.6475 28.5012 24.887 28.5 23.9979C28.4988 23.1087 28.1564 22.3488 27.4727 21.718C26.7891 21.0872 25.9648 20.7707 25 20.7686C24.0352 20.7664 23.2115 21.0829 22.529 21.718C21.8465 22.3531 21.5035 23.113 21.5 23.9979C21.4965 24.8827 21.8395 25.6432 22.529 26.2793C23.2185 26.9155 24.0422 27.2314 25 27.2271ZM36.5937 40.8708L32.4812 39.3773C33.4437 37.359 34.1367 35.556 34.5602 33.9682C34.9837 32.3805 35.297 30.4968 35.5 28.317L37.425 29.4876C37.9208 29.7836 38.3076 30.1739 38.5852 30.6582C38.8629 31.1426 39.0012 31.6539 39 32.1922V39.3773C39 39.9424 38.7451 40.3864 38.2352 40.7094C37.7254 41.0323 37.1782 41.0861 36.5937 40.8708Z" fill="#0067D0"/>
</svg>
