<svg width="22" height="19" viewBox="0 0 22 19" fill="none" xmlns="http://www.w3.org/2000/svg">
<path d="M10.128 1.01375C10.2411 1.19471 10.3175 1.39617 10.3527 1.60664C10.3879 1.81711 10.3814 2.03246 10.3334 2.24039C10.2854 2.44833 10.1969 2.64477 10.073 2.81852C9.94912 2.99226 9.79221 3.1399 9.61125 3.253C7.63346 4.4849 6.06227 6.272 5.09375 8.39125C6.07182 8.30946 7.0518 8.52479 7.90547 9.00909C8.75915 9.49338 9.44677 10.2241 9.87836 11.1056C10.31 11.9871 10.4654 12.9783 10.3244 13.9496C10.1834 14.9209 9.75255 15.827 9.08814 16.5494C8.42373 17.2718 7.55674 17.7768 6.60059 17.9984C5.64445 18.22 4.6437 18.1478 3.72925 17.7913C2.81481 17.4348 2.02926 16.8106 1.4754 16.0003C0.921535 15.1901 0.625142 14.2315 0.625 13.25V13.2061C0.626767 13.0803 0.632186 12.9546 0.64125 12.8291C0.655875 12.5854 0.685125 12.2441 0.742 11.8249C0.85575 10.9912 1.07837 9.84237 1.5285 8.55212C2.4255 5.96837 4.24225 2.77525 7.88875 0.496997C8.06971 0.383895 8.27118 0.307545 8.48165 0.272304C8.69211 0.237063 8.90746 0.243622 9.1154 0.291607C9.32333 0.339591 9.51978 0.428062 9.69352 0.551967C9.86726 0.675872 10.0149 0.832785 10.128 1.01375ZM21.503 1.01375C21.6161 1.19471 21.6925 1.39617 21.7277 1.60664C21.7629 1.81711 21.7564 2.03246 21.7084 2.24039C21.6604 2.44833 21.5719 2.64477 21.448 2.81852C21.3241 2.99226 21.1672 3.1399 20.9862 3.253C19.0085 4.4849 17.4373 6.272 16.4687 8.39125C17.4468 8.30946 18.4268 8.52479 19.2805 9.00909C20.1341 9.49338 20.8218 10.2241 21.2534 11.1056C21.685 11.9871 21.8404 12.9783 21.6994 13.9496C21.5584 14.9209 21.1276 15.827 20.4631 16.5494C19.7987 17.2718 18.9317 17.7768 17.9756 17.9984C17.0195 18.22 16.0187 18.1478 15.1043 17.7913C14.1898 17.4348 13.4043 16.8106 12.8504 16.0003C12.2965 15.1901 12.0001 14.2315 12 13.25V13.2061C12.0018 13.0803 12.0072 12.9546 12.0162 12.8291C12.0309 12.5854 12.0601 12.2441 12.117 11.8249C12.2307 10.9912 12.4534 9.84237 12.9035 8.55212C13.8005 5.96837 15.6172 2.77525 19.2637 0.496997C19.4447 0.383895 19.6462 0.307545 19.8566 0.272304C20.0671 0.237063 20.2825 0.243622 20.4904 0.291607C20.6983 0.339591 20.8948 0.428062 21.0685 0.551967C21.2423 0.675872 21.3899 0.832785 21.503 1.01375Z" fill="black"/>
</svg>
